<svg width="22" height="20" viewBox="0 0 22 20" fill="none" xmlns="http://www.w3.org/2000/svg">
<g clip-path="url(#clip0_9_4100)">
<path d="M11.8989 16.2347H2.97412V17.3317H11.8989V16.2347Z" fill="#10B981"/>
<path d="M2.03453 1.09697V2.0383H1.09494V1.09697H2.03453ZM3.13194 0H0V3.13774H3.13194V0Z" fill="#10B981"/>
<path d="M19.2601 1.09697V2.0383H18.3206V1.09697H19.2601ZM20.3551 0H17.2231V3.13774H20.3551V0Z" fill="#10B981"/>
<path d="M2.03453 16.3138V17.2551H1.09494V16.3138H2.03453ZM3.13194 15.2168H0V18.3545H3.13194V15.2168Z" fill="#10B981"/>
<path d="M17.381 1.02039H2.97412V2.11736H17.3786V1.02039H17.381Z" fill="#10B981"/>
<path d="M2.1135 15.3725V3.13774H1.01855V15.3725H2.1135Z" fill="#10B981"/>
<path d="M19.3366 9.88265V3.13774H18.2417V9.88265H19.3366Z" fill="#10B981"/>
<path d="M11.6128 9.32675L22 13.4997L17.6301 15.5083L15.672 20L11.6128 9.32675Z" fill="#10B981"/>
</g>
<defs>
<clipPath id="clip0_9_4100">
<rect width="22" height="20" fill="white"/>
</clipPath>
</defs>
</svg>
