<svg width="19" height="20" viewBox="0 0 19 20" fill="none" xmlns="http://www.w3.org/2000/svg">
<g clip-path="url(#clip0_9_4106)">
<path d="M18.5006 4.6488H0.499421C0.222209 4.6488 0 4.41918 0 4.13777C0 3.85637 0.224409 3.62674 0.499421 3.62674H18.5006C18.7778 3.62674 19 3.85637 19 4.13777C19 4.41918 18.7756 4.6488 18.5006 4.6488Z" fill="#EF4444"/>
<path d="M13.4999 20H5.50035C3.57087 20 2 18.3926 2 16.4183V7.20846C2 6.92481 2.22441 6.69743 2.49942 6.69743C2.77443 6.69743 2.99884 6.92706 2.99884 7.20846V16.4183C2.99884 17.8298 4.12089 18.9757 5.49815 18.9757H13.4977C14.8771 18.9757 15.997 17.8276 15.997 16.4183V7.20846C15.997 6.92481 16.2214 6.69743 16.4964 6.69743C16.7714 6.69743 16.9958 6.92706 16.9958 7.20846V16.4183C16.9958 18.3926 15.425 20 13.4955 20H13.4999Z" fill="#EF4444"/>
<path d="M7.24942 15.6506C6.97221 15.6506 6.75 15.421 6.75 15.1396V9.51149C6.75 9.22783 6.97441 9.00046 7.24942 9.00046C7.52443 9.00046 7.74884 9.23008 7.74884 9.51149V15.1396C7.74884 15.4232 7.52443 15.6506 7.24942 15.6506Z" fill="#EF4444"/>
<path d="M11.7509 15.6506C11.4737 15.6506 11.2515 15.421 11.2515 15.1396V9.51149C11.2515 9.22783 11.4759 9.00046 11.7509 9.00046C12.0259 9.00046 12.2503 9.23008 12.2503 9.51149V15.1396C12.2503 15.4232 12.0259 15.6506 11.7509 15.6506Z" fill="#EF4444"/>
<path d="M11.7506 2.60242C11.5504 2.60242 11.3612 2.47861 11.2842 2.276C10.9938 1.51508 10.2941 1.02206 9.49989 1.02206C8.70565 1.02206 8.00602 1.51508 7.71561 2.276C7.61441 2.53939 7.324 2.66996 7.06878 2.5664C6.81137 2.46285 6.68377 2.16794 6.78497 1.90454C7.22499 0.747404 8.29204 -0.0022583 9.49989 -0.0022583C10.7077 -0.0022583 11.7748 0.745153 12.2148 1.90454C12.316 2.16794 12.1884 2.4651 11.931 2.5664C11.8716 2.59117 11.81 2.60242 11.7484 2.60242H11.7506Z" fill="#EF4444"/>
</g>
<defs>
<clipPath id="clip0_9_4106">
<rect width="19" height="20" fill="white"/>
</clipPath>
</defs>
</svg>
