<svg width="10" height="14" viewBox="0 0 10 14" fill="none" xmlns="http://www.w3.org/2000/svg">
  <path d="M5.00004 13.3251C5.03083 13.3447 5.02243 13.3307 5.00004 13.3056C4.97765 13.3307 4.96926 13.3447 5.00004 13.3251Z" stroke="#3B82F6" stroke-width="1.12562" stroke-linecap="round" stroke-linejoin="round"/>
  <path d="M5 0C2.23889 0 0 2.28333 0 5.1C0 6.04444 0.15 6.55833 0.4 7.36389C1.14722 9.775 4.73333 13.0028 5 13.3056C5.26389 13.0028 8.85 9.77778 9.59722 7.375C9.85 6.56667 10.0028 6.04722 10.0028 5.1C10.0028 2.28333 7.76389 0 5.00278 0H5ZM5.01944 7.12778C3.91389 7.12778 3.01944 6.23333 3.01944 5.12778C3.01944 4.02222 3.91389 3.12778 5.01944 3.12778C6.125 3.12778 7.01944 4.02222 7.01944 5.12778C7.01944 6.23333 6.125 7.12778 5.01944 7.12778Z" stroke="#3B82F6" stroke-width="1.12562" stroke-linecap="round" stroke-linejoin="round"/>
</svg>
