<svg width="16" height="15" viewBox="0 0 16 15" fill="none" xmlns="http://www.w3.org/2000/svg">
<path d="M13.0182 13.725L8.9455 9.525C8.58186 9.825 8.16368 10.0625 7.69095 10.2375C7.21823 10.4125 6.7152 10.5 6.18186 10.5C4.86065 10.5 3.74259 10.0282 2.82768 9.08475C1.91229 8.14075 1.45459 6.9875 1.45459 5.625C1.45459 4.2625 1.91229 3.10925 2.82768 2.16525C3.74259 1.22175 4.86065 0.75 6.18186 0.75C7.50307 0.75 8.62138 1.22175 9.53677 2.16525C10.4517 3.10925 10.9091 4.2625 10.9091 5.625C10.9091 6.175 10.8243 6.69375 10.6546 7.18125C10.4849 7.66875 10.2546 8.1 9.96368 8.475L14.0546 12.6937C14.1879 12.8312 14.2546 13 14.2546 13.2C14.2546 13.4 14.1819 13.575 14.0364 13.725C13.9031 13.8625 13.7334 13.9313 13.5273 13.9313C13.3213 13.9313 13.1516 13.8625 13.0182 13.725ZM6.18186 9C7.09095 9 7.8638 8.672 8.50041 8.016C9.13653 7.3595 9.45459 6.5625 9.45459 5.625C9.45459 4.6875 9.13653 3.8905 8.50041 3.234C7.8638 2.578 7.09095 2.25 6.18186 2.25C5.27277 2.25 4.49992 2.578 3.86332 3.234C3.2272 3.8905 2.90914 4.6875 2.90914 5.625C2.90914 6.5625 3.2272 7.3595 3.86332 8.016C4.49992 8.672 5.27277 9 6.18186 9Z" fill="#94A3B8"/>
</svg>
