<svg width="23" height="20" viewBox="0 0 23 20" fill="none" xmlns="http://www.w3.org/2000/svg">
<path d="M5.83329 19.1585C5.86408 19.1781 5.85568 19.1641 5.83329 19.1389C5.81091 19.1641 5.80251 19.1781 5.83329 19.1585Z" stroke="#3B82F6" stroke-width="1.12562" stroke-linecap="round" stroke-linejoin="round"/>
<path d="M5.83325 5.83334C3.07214 5.83334 0.833252 8.11668 0.833252 10.9333C0.833252 11.8778 0.983252 12.3917 1.23325 13.1972C1.98047 15.6083 5.56659 18.8361 5.83325 19.1389C6.09714 18.8361 9.68325 15.6111 10.4305 13.2083C10.6833 12.4 10.836 11.8806 10.836 10.9333C10.836 8.11668 8.59714 5.83334 5.83603 5.83334H5.83325ZM5.8527 12.9611C4.74714 12.9611 3.8527 12.0667 3.8527 10.9611C3.8527 9.85557 4.74714 8.96112 5.8527 8.96112C6.95825 8.96112 7.8527 9.85557 7.8527 10.9611C7.8527 12.0667 6.95825 12.9611 5.8527 12.9611Z" stroke="#3B82F6" stroke-width="1.12562" stroke-linecap="round" stroke-linejoin="round"/>
<path d="M19.7749 0.833344H17.0833C14.5638 0.833344 12.4999 2.89445 12.4999 5.41668C12.4999 7.9389 13.9444 10 16.4666 10H17.3222C19.8416 10 21.2888 12.0639 21.2888 14.5833C21.2888 17.1056 19.2249 19.1667 16.7055 19.1667H5.97217" stroke="#3B82F6" stroke-width="1.12562" stroke-linecap="round" stroke-linejoin="round" stroke-dasharray="2.78 2.78"/>
</svg>
