<svg width="19" height="21" viewBox="0 0 19 21" fill="none" xmlns="http://www.w3.org/2000/svg">
<g clip-path="url(#clip0_236_148)">
<path d="M18.2084 2.67055H0.791748V20.0872H18.2084V2.67055Z" stroke="#E8563A" stroke-width="1.06934" stroke-linecap="round" stroke-linejoin="round"/>
<path d="M0.791748 8.70833H18.2084" stroke="#E8563A" stroke-width="1.06934" stroke-linecap="round" stroke-linejoin="round"/>
<path d="M0.791748 14.6089H18.2084" stroke="#E8563A" stroke-width="1.06934" stroke-linecap="round" stroke-linejoin="round"/>
<path d="M6.33325 20.0872V2.67055" stroke="#E8563A" stroke-width="1.06934" stroke-linecap="round" stroke-linejoin="round"/>
<path d="M12.6667 20.0872V2.67055" stroke="#E8563A" stroke-width="1.06934" stroke-linecap="round" stroke-linejoin="round"/>
<path d="M9.49999 0.791672C7.14347 0.791672 5.23291 2.73917 5.23291 5.1432C5.23291 5.9507 5.36222 6.38875 5.57597 7.07486C6.21458 9.1332 9.24402 11.9489 9.46569 12.2181C9.69791 11.9489 12.7854 9.1332 13.424 7.08542C13.6378 6.39403 13.7697 5.95334 13.7697 5.1432C13.7697 2.73917 11.8592 0.791672 9.50263 0.791672H9.49999ZM9.51583 6.87695C8.57374 6.87695 7.80847 6.11167 7.80847 5.16959C7.80847 4.2275 8.57374 3.46223 9.51583 3.46223C10.4579 3.46223 11.2232 4.2275 11.2232 5.16959C11.2232 6.11167 10.4579 6.87695 9.51583 6.87695Z" fill="white" stroke="#E8563A" stroke-width="1.06934" stroke-linecap="round" stroke-linejoin="round"/>
<path d="M9.46312 12.2367C9.48971 12.2526 9.48173 12.242 9.46312 12.218C9.44451 12.242 9.43654 12.2526 9.46312 12.2367Z" stroke="#E8563A" stroke-width="1.06934" stroke-linecap="round" stroke-linejoin="round"/>
</g>
<defs>
<clipPath id="clip0_236_148">
<rect width="19" height="20.8789" fill="white"/>
</clipPath>
</defs>
</svg>
