<svg width="16" height="16" viewBox="0 0 16 16" fill="none" xmlns="http://www.w3.org/2000/svg">
<g clip-path="url(#clip0_47_6761)">
<path d="M5.19188 14.7682C1.45201 13.2191 -0.323957 8.93155 1.22515 5.19167C2.77425 1.4518 7.06181 -0.324162 10.8017 1.22494C14.5416 2.77405 16.3175 7.06161 14.7684 10.8015C13.2193 14.5414 8.93175 16.3173 5.19188 14.7682Z" stroke="#06B6D4" stroke-width="0.799589" stroke-linecap="round" stroke-linejoin="round"/>
<path d="M7.35921 9.53557C6.50924 9.1835 6.10561 8.20905 6.45768 7.35908C6.80975 6.50911 7.7842 6.10548 8.63417 6.45755C9.48414 6.80962 9.88777 7.78407 9.5357 8.63404C9.18363 9.48401 8.20918 9.88764 7.35921 9.53557Z" stroke="#06B6D4" stroke-width="0.799589" stroke-linecap="round" stroke-linejoin="round"/>
<path d="M7.99593 0.719604V3.08283" stroke="#06B6D4" stroke-width="0.799589" stroke-linecap="round" stroke-linejoin="round"/>
<path d="M15.3255 7.99591H12.9601" stroke="#06B6D4" stroke-width="0.799589" stroke-linecap="round" stroke-linejoin="round"/>
<path d="M7.99593 15.221V12.8556" stroke="#06B6D4" stroke-width="0.799589" stroke-linecap="round" stroke-linejoin="round"/>
<path d="M0.824105 7.99591H3.18733" stroke="#06B6D4" stroke-width="0.799589" stroke-linecap="round" stroke-linejoin="round"/>
</g>
<defs>
<clipPath id="clip0_47_6761">
<rect width="15.9918" height="15.9918" fill="white" transform="matrix(-1 0 0 1 15.9918 0)"/>
</clipPath>
</defs>
</svg>
