<svg width="20" height="20" viewBox="0 0 20 20" fill="none" xmlns="http://www.w3.org/2000/svg">
<path d="M14.9083 14.7222C17.4666 15.15 19.1666 15.9 19.1666 16.7583C19.1666 18.0889 15.0638 19.1667 9.99992 19.1667C4.93603 19.1667 0.833252 18.0889 0.833252 16.7583C0.833252 15.9361 2.4027 15.2083 4.79436 14.775" stroke="#06B6D4" stroke-width="1.12562" stroke-linecap="round" stroke-linejoin="round"/>
<path d="M10.1556 16.0974C10.192 16.1198 10.1892 16.1114 10.1556 16.075C10.1221 16.1114 10.1193 16.1226 10.1556 16.0974Z" stroke="#06B6D4" stroke-width="1.66667" stroke-linecap="round" stroke-linejoin="round"/>
<path d="M10.1555 0.833344C6.99162 0.833344 4.42773 3.45001 4.42773 6.67501C4.42773 7.75834 4.59996 8.34723 4.88607 9.26945C5.73607 12.0111 10.1555 16.075 10.1555 16.075C10.1555 16.075 14.5722 12.0139 15.4222 9.28334C15.7111 8.35557 15.8861 7.7639 15.8861 6.67501C15.8861 3.45001 13.3222 0.833344 10.1583 0.833344H10.1555ZM10.1555 9.23612C8.57218 9.23612 7.29162 7.95279 7.29162 6.37223C7.29162 4.79168 8.57496 3.50834 10.1555 3.50834C11.7361 3.50834 13.0194 4.79168 13.0194 6.37223C13.0194 7.95279 11.7361 9.23612 10.1555 9.23612Z" stroke="#06B6D4" stroke-width="1.12562" stroke-linecap="round" stroke-linejoin="round"/>
</svg>
