<svg width="20" height="20" viewBox="0 0 20 20" fill="none" xmlns="http://www.w3.org/2000/svg">
<g clip-path="url(#clip0_32_2763)">
<path d="M10.5258 17.1506V10.5258H17.1507L15.3316 12.3472L16.0753 13.0909L19.1663 10L16.0753 6.90904L15.3316 7.65277L17.1507 9.47418H10.5258V2.84936L12.3496 4.67077L13.0933 3.92705L10 0.833725L6.90906 3.92705L7.65278 4.67077L9.47419 2.84936V9.47418H2.84937L4.67078 7.65277L3.92706 6.90904L0.83374 10L3.92706 13.0909L4.67078 12.3472L2.84937 10.5258H9.47419V17.1506L7.65278 15.3292L6.90906 16.0729L10 19.1663L13.0933 16.0729L12.3496 15.3292L10.5258 17.1506Z" fill="#F59E0B"/>
<path d="M15.2629 0V1.05163H18.9484V4.73709H20V0H15.2629Z" fill="#F59E0B"/>
<path d="M1.05163 1.05163H4.73709V0H0V4.73709H1.05163V1.05163Z" fill="#F59E0B"/>
<path d="M1.05163 15.2629H0V20H4.73709V18.9484H1.05163V15.2629Z" fill="#F59E0B"/>
<path d="M18.9484 18.9484H15.2629V20H20V15.2629H18.9484V18.9484Z" fill="#F59E0B"/>
</g>
<defs>
<clipPath id="clip0_32_2763">
<rect width="20" height="20" fill="white"/>
</clipPath>
</defs>
</svg>
