<svg width="22" height="20" viewBox="0 0 22 20" fill="none" xmlns="http://www.w3.org/2000/svg">
<path d="M17.9 18.3L12.3 12.7C11.8 13.1 11.225 13.4167 10.575 13.65C9.925 13.8833 9.23333 14 8.5 14C6.68333 14 5.146 13.371 3.888 12.113C2.62933 10.8543 2 9.31667 2 7.5C2 5.68333 2.62933 4.14567 3.888 2.887C5.146 1.629 6.68333 1 8.5 1C10.3167 1 11.8543 1.629 13.113 2.887C14.371 4.14567 15 5.68333 15 7.5C15 8.23333 14.8833 8.925 14.65 9.575C14.4167 10.225 14.1 10.8 13.7 11.3L19.325 16.925C19.5083 17.1083 19.6 17.3333 19.6 17.6C19.6 17.8667 19.5 18.1 19.3 18.3C19.1167 18.4833 18.8833 18.575 18.6 18.575C18.3167 18.575 18.0833 18.4833 17.9 18.3ZM8.5 12C9.75 12 10.8127 11.5627 11.688 10.688C12.5627 9.81267 13 8.75 13 7.5C13 6.25 12.5627 5.18733 11.688 4.312C10.8127 3.43733 9.75 3 8.5 3C7.25 3 6.18733 3.43733 5.312 4.312C4.43733 5.18733 4 6.25 4 7.5C4 8.75 4.43733 9.81267 5.312 10.688C6.18733 11.5627 7.25 12 8.5 12Z" fill="#60A5FA"/>
</svg>
