<svg width="22" height="21" viewBox="0 0 22 21" fill="none" xmlns="http://www.w3.org/2000/svg">
<g clip-path="url(#clip0_9_4084)">
<path d="M11.2227 20.4277C8.63211 20.4277 6.60254 15.9419 6.60254 10.2139C6.60254 4.4858 8.63211 0 11.2227 0C11.5126 0 11.746 0.233365 11.746 0.523304C11.746 0.813243 11.5126 1.04661 11.2227 1.04661C9.53257 1.04661 7.6515 4.8111 7.6515 10.2115C7.6515 15.6119 9.53493 19.3764 11.2227 19.3764C11.5126 19.3764 11.746 19.6098 11.746 19.8997C11.746 20.1896 11.5126 20.423 11.2227 20.423V20.4277Z" fill="#F8FAFC"/>
<path d="M5.83649 14.3272C5.79878 14.3272 5.76106 14.3225 5.72335 14.3154C2.14036 13.5187 0 11.9959 0 10.2398C0 7.60677 4.7286 5.61963 11.0012 5.61963C17.2738 5.61963 22.0024 7.60441 22.0024 10.2398C22.0024 10.5297 21.769 10.7631 21.4791 10.7631C21.1891 10.7631 20.9557 10.5297 20.9557 10.2398C20.9557 8.54966 16.8683 6.6686 11.0035 6.6686C5.13875 6.6686 1.04661 8.54966 1.04661 10.2398C1.04661 11.4326 2.97011 12.6324 5.94728 13.2924C6.23015 13.356 6.40694 13.6342 6.34565 13.9171C6.29144 14.1622 6.07457 14.3272 5.83414 14.3272H5.83649Z" fill="white"/>
<path d="M11.0012 14.8576C10.3411 14.8576 9.68348 14.834 9.03995 14.7869C8.75237 14.7657 8.53551 14.5158 8.55436 14.2259C8.57558 13.9383 8.83016 13.7191 9.11538 13.7403C9.72591 13.7851 10.3553 13.8063 11.0012 13.8063C11.2911 13.8063 11.5245 14.0396 11.5245 14.3296C11.5245 14.6195 11.2911 14.8529 11.0012 14.8529V14.8576Z" fill="white"/>
<path d="M11.4066 16.8377C11.284 16.8377 11.1591 16.7952 11.0601 16.708L8.73115 14.6596C8.618 14.5606 8.552 14.4168 8.552 14.2659C8.552 14.1151 8.618 13.9713 8.73115 13.8723L11.0601 11.8238C11.277 11.6329 11.607 11.6541 11.8003 11.871C11.9912 12.0879 11.97 12.4179 11.7531 12.6112L9.87205 14.2659L11.7531 15.9207C11.97 16.1116 11.9912 16.444 11.8003 16.6609C11.6965 16.7787 11.5528 16.84 11.4066 16.84V16.8377Z" fill="white"/>
<path d="M15.2583 12.3872C15.2466 12.3872 15.2324 12.3872 15.2206 12.3872C14.933 12.366 14.7162 12.1161 14.735 11.8262C14.7728 11.3028 14.794 10.763 14.794 10.2138C14.794 4.81341 12.9105 1.04891 11.2228 1.04891C10.9328 1.04891 10.6995 0.815547 10.6995 0.525608C10.6995 0.23567 10.9328 0.00230408 11.2228 0.00230408C13.8134 0.00230408 15.8429 4.48811 15.8429 10.2162C15.8429 10.7913 15.8217 11.3571 15.7816 11.9039C15.7628 12.1797 15.5318 12.3895 15.2607 12.3895L15.2583 12.3872Z" fill="white"/>
<path d="M11.2228 20.4277C10.9328 20.4277 10.6995 20.1944 10.6995 19.9044C10.6995 19.6145 10.9328 19.3811 11.2228 19.3811C12.2929 19.3811 13.382 17.9479 14.0703 15.6449C14.1528 15.3691 14.4427 15.2112 14.7209 15.2913C14.999 15.3738 15.157 15.6661 15.0745 15.9419C14.2259 18.7942 12.821 20.4277 11.2228 20.4277Z" fill="white"/>
<path d="M11.0012 14.8576C10.7113 14.8576 10.4779 14.6242 10.4779 14.3343C10.4779 14.0444 10.7113 13.811 11.0012 13.811C16.866 13.811 20.9534 11.9299 20.9534 10.2398C20.9534 9.94986 21.1868 9.71649 21.4767 9.71649C21.7667 9.71649 22 9.94986 22 10.2398C22 12.8728 17.2714 14.8576 10.9989 14.8576H11.0012Z" fill="white"/>
<path d="M15.3173 12.8257C15.1664 12.8257 15.0226 12.7597 14.9236 12.6465L12.8752 10.3176C12.6842 10.1007 12.7055 9.77071 12.9223 9.57742C13.1392 9.38648 13.4692 9.4077 13.6625 9.62456L15.3173 11.5056L16.972 9.62456C17.1653 9.4077 17.4953 9.38648 17.7122 9.57742C17.9291 9.76835 17.9503 10.1007 17.7594 10.3176L15.7109 12.6465C15.6119 12.7597 15.4681 12.8257 15.3173 12.8257Z" fill="white"/>
</g>
<defs>
<clipPath id="clip0_9_4084">
<rect width="22" height="20.4277" fill="white"/>
</clipPath>
</defs>
</svg>
